<?xml version="1.0" encoding="UTF-8"?>
<svg id="Layer_1" data-name="Layer 1" xmlns="http://www.w3.org/2000/svg" viewBox="0 0 62 62">
  <defs>
    <style>
      .cls-1 {
        fill: #33ace7;
      }
    </style>
  </defs>
  <g>
    <path class="cls-1" d="M42.16,11.67v2.8c0,1.89-3.43,3.37-4.58,4.58-.17.18-.3.43-.29.68v9.71c.03.38.2.56.47.8,1.2,1.08,4.41,2.7,4.41,4.46v2.73s-.07.07-.07.07h-5.46s-.07-.07-.07-.07v-6.87c0-.17-.33-.49-.46-.61-1.12-.99-3.54-2.27-4.14-3.56-.39-.83-.38-2.7-.03-3.54.57-1.36,3.14-2.68,4.27-3.72.09-.08.37-.41.37-.51v-6.95h5.61Z"/>
    <path class="cls-1" d="M22.85,11.67c.02.09.04.17.05.27.16,2.08-.13,4.39-.02,6.49.02.36.23.58.49.8,1.11.99,3.64,2.32,4.18,3.62.28.69.28,2.7.01,3.4-.58,1.48-3.16,2.69-4.32,3.8-.08.08-.28.33-.31.44l-.02,6.71-.05.31h-5.48s-.07-.07-.07-.07v-2.73c0-1.8,3.22-3.38,4.44-4.48.25-.23.46-.46.44-.83v-9.71c0-.25-.16-.44-.3-.63-1.17-1.14-4.58-2.77-4.58-4.59v-2.8h5.56Z"/>
  </g>
  <g>
    <g>
      <path d="M1.49,42.62v3.17h3.67v-3.17h.99v7.59h-.99v-3.56H1.49v3.56h-.98v-7.59h.98Z"/>
      <path d="M12.42,48.72c0,.56.01,1.06.04,1.49h-.88l-.06-.89h-.02c-.26.44-.83,1.01-1.8,1.01-.86,0-1.88-.47-1.88-2.39v-3.18h.99v3.02c0,1.04.32,1.73,1.22,1.73.66,0,1.13-.46,1.31-.9.06-.15.09-.33.09-.51v-3.34h.99v3.96Z"/>
      <path d="M14.1,46.23c0-.56-.01-1.02-.05-1.47h.87l.05.88h.03c.3-.52.81-1,1.71-1,.74,0,1.31.45,1.54,1.09h.02c.17-.3.38-.54.61-.71.33-.25.69-.38,1.2-.38.72,0,1.79.47,1.79,2.36v3.21h-.97v-3.08c0-1.05-.38-1.68-1.18-1.68-.56,0-1,.42-1.17.9-.04.14-.08.32-.08.5v3.36h-.97v-3.26c0-.87-.38-1.5-1.14-1.5-.62,0-1.07.5-1.23.99-.06.15-.08.32-.08.48v3.29h-.97v-3.97Z"/>
      <path d="M24.09,47.66c.02,1.34.88,1.89,1.87,1.89.71,0,1.14-.12,1.51-.28l.17.71c-.35.16-.95.34-1.81.34-1.68,0-2.68-1.1-2.68-2.75s.97-2.94,2.55-2.94c1.78,0,2.25,1.56,2.25,2.57,0,.2-.02.36-.03.46h-3.83ZM26.99,46.95c.01-.63-.26-1.61-1.37-1.61-1,0-1.44.92-1.52,1.61h2.89Z"/>
      <path d="M30.23,42.62v3.17h3.67v-3.17h.99v7.59h-.99v-3.56h-3.67v3.56h-.98v-7.59h.98Z"/>
      <path d="M37.15,47.66c.02,1.34.88,1.89,1.87,1.89.71,0,1.14-.12,1.51-.28l.17.71c-.35.16-.95.34-1.81.34-1.68,0-2.68-1.1-2.68-2.75s.97-2.94,2.55-2.94c1.78,0,2.25,1.56,2.25,2.57,0,.2-.02.36-.03.46h-3.83ZM40.06,46.95c.01-.63-.26-1.61-1.37-1.61-1,0-1.44.92-1.52,1.61h2.89Z"/>
      <path d="M45.3,50.21l-.08-.69h-.03c-.3.43-.89.81-1.67.81-1.1,0-1.67-.78-1.67-1.56,0-1.32,1.17-2.04,3.27-2.03v-.11c0-.45-.12-1.26-1.24-1.26-.51,0-1.04.16-1.42.41l-.23-.65c.45-.29,1.1-.48,1.79-.48,1.67,0,2.07,1.14,2.07,2.23v2.04c0,.47.02.93.09,1.31h-.9ZM45.15,47.43c-1.08-.02-2.31.17-2.31,1.23,0,.64.43.95.93.95.71,0,1.16-.45,1.32-.91.03-.1.06-.21.06-.32v-.95Z"/>
      <path d="M47.75,42.22h.99v7.99h-.99v-7.99Z"/>
      <path d="M51.65,43.19v1.56h1.42v.75h-1.42v2.94c0,.68.19,1.06.74,1.06.26,0,.45-.03.57-.07l.05.74c-.19.08-.5.14-.88.14-.46,0-.83-.15-1.07-.42-.28-.29-.38-.78-.38-1.42v-2.97h-.84v-.75h.84v-1.31l.97-.26Z"/>
      <path d="M54.23,42.22h.99v3.4h.02c.16-.28.41-.53.71-.7.29-.17.64-.28,1.01-.28.73,0,1.9.45,1.9,2.33v3.24h-.99v-3.13c0-.88-.33-1.62-1.26-1.62-.64,0-1.15.45-1.33.99-.06.14-.07.28-.07.47v3.29h-.99v-7.99Z"/>
    </g>
    <g>
      <path d="M60.09,42.78h-.39v1.09h-.16v-1.09h-.39v-.13h.94v.13Z"/>
      <path d="M60.49,42.65l.4.99.4-.99h.21v1.22h-.16v-.47l.02-.51-.4.99h-.12l-.4-.98.02.51v.47h-.16v-1.22h.21Z"/>
    </g>
  </g>
</svg>