<?xml version="1.0" encoding="UTF-8"?>
<svg id="Layer_1" data-name="Layer 1" xmlns="http://www.w3.org/2000/svg" viewBox="0 0 62 62">
  <defs>
    <style>
      .cls-1 {
        fill: #f23440;
      }
    </style>
  </defs>
  <path class="cls-1" d="M15.93,31.39h2.58v-1.06h-2.58v-1.56h2.7v-1.06h-3.83v6.57h3.95v-1.06h-2.78v-1.84h-.04Z"/>
  <path class="cls-1" d="M25.7,30.65l-1.41-.55c-.35-.16-.55-.35-.55-.7s.31-.7.86-.7.9.27,1.17.82l1.06-.51c-.35-.82-.98-1.41-2.23-1.41s-2.07.86-2.07,1.88.39,1.33,1.25,1.64l1.37.51c.59.23.78.47.78.9s-.39.7-1.02.7-1.25-.43-1.49-1.13l-1.09.47c.31,1.02,1.09,1.8,2.58,1.8s2.23-.82,2.23-1.84-.16-.98-.47-1.29c-.23-.23-.55-.47-.94-.63l-.04.04Z"/>
  <path class="cls-1" d="M30.24,28.77h1.99v5.51h1.13v-5.51h1.99v-1.06h-5.12s0,1.06,0,1.06Z"/>
  <path class="cls-1" d="M41.77,27.6c-1.92,0-3.36,1.45-3.36,3.4s1.49,3.4,3.36,3.4,3.36-1.52,3.36-3.4-1.49-3.4-3.36-3.4ZM41.77,33.27c-1.21,0-2.15-.98-2.15-2.27s.94-2.27,2.15-2.27,2.15.98,2.15,2.27-.94,2.27-2.15,2.27Z"/>
  <path class="cls-1" d="M58.5,33.23v-1.84h2.58v-1.06h-2.58v-1.56h2.7v-1.06h-3.83v6.57h3.95v-1.06h-2.81Z"/>
  <path class="cls-1" d="M10.89,29.63c0-1.13-.78-1.95-2.15-1.95h-2.38v1.06h2.35c.59,0,.94.35.94.86s-.35.86-1.02.86h-2.31v3.79h1.13v-2.7h.98l1.33,2.7h1.33l-1.49-2.93c.9-.35,1.25-.94,1.25-1.72l.04.04Z"/>
  <path class="cls-1" d="M53.46,29.63c0-1.13-.78-1.95-2.15-1.95h-2.38v1.06h2.35c.59,0,.94.35.94.86s-.35.86-1.02.86h-2.31v3.79h1.13v-2.7h.98l1.33,2.7h1.33l-1.49-2.93c.9-.35,1.25-.94,1.25-1.72l.04.04Z"/>
  <path class="cls-1" d="M1.82,30.49H.68v3.79h1.17v-3.79h-.04Z"/>
</svg>