<?xml version="1.0" encoding="UTF-8"?>
<svg id="Layer_1" data-name="Layer 1" xmlns="http://www.w3.org/2000/svg" viewBox="0 0 62 62">
  <defs>
    <style>
      .cls-1 {
        fill: #1d1d1b;
      }
    </style>
  </defs>
  <path class="cls-1" d="M4.56,23.24h7.76v-1.69h-7.76s0,1.69,0,1.69ZM40,32.22h-5.41v-5.57h5.41c1.92,0,3.21,1.14,3.21,2.78s-1.29,2.78-3.21,2.78M41.76,33.51c1.84-.51,3.06-2.12,3.06-4.08s-1.96-4.23-4.86-4.23h-7.06v14.93h1.65v-6.47h5.53l3.53,6.47h1.76l-3.65-6.62h.08-.04ZM24.47,40.41c4,0,6.78-2.82,6.78-6.82v-8.39h-1.69v8.27c0,3.1-2.12,5.25-5.1,5.25s-5.17-1.65-5.17-5.25v-8.27h-1.69v8.39c0,4,2.82,6.82,6.86,6.82M53.67,27.16l3.53,7.72h-7.09l3.53-7.72h.04ZM52.89,25.2l-6.82,14.93h1.76l1.69-3.84h8.35l1.69,3.84h1.76l-6.82-14.93h-1.61ZM8.44,24.92c-4.27,0-7.76,3.49-7.76,7.76s3.49,7.76,7.76,7.76,7.76-3.49,7.76-7.76-3.49-7.76-7.76-7.76M8.44,38.76c-3.37,0-6.08-2.74-6.08-6.08s2.74-6.08,6.08-6.08,6.08,2.74,6.08,6.08-2.74,6.08-6.08,6.08"/>
</svg>