<?xml version="1.0" standalone="no"?>
<!DOCTYPE svg PUBLIC "-//W3C//DTD SVG 20010904//EN"
 "http://www.w3.org/TR/2001/REC-SVG-20010904/DTD/svg10.dtd">
<svg version="1.0" xmlns="http://www.w3.org/2000/svg"
 width="154.000000pt" height="24.000000pt" viewBox="0 0 154.000000 24.000000"
 preserveAspectRatio="xMidYMid meet">

<g transform="translate(0.000000,24.000000) scale(0.100000,-0.100000)"
fill="#ffffff" stroke="none">
<path d="M0 120 l0 -120 770 0 770 0 0 120 0 120 -770 0 -770 0 0 -120z m153
69 c20 -28 10 -59 -24 -71 -21 -7 -29 -17 -29 -34 0 -15 -6 -24 -15 -24 -12 0
-15 15 -15 75 l0 75 34 0 c24 0 39 -7 49 -21z m87 11 c0 -5 -4 -10 -10 -10
-15 0 -13 -117 3 -123 6 -3 -4 -6 -23 -6 -26 -1 -31 2 -22 11 14 14 16 118 2
118 -5 0 -10 5 -10 10 0 6 14 10 30 10 17 0 30 -4 30 -10z m120 -4 c0 -9 -8
-12 -25 -8 -34 6 -55 -14 -55 -52 0 -39 15 -56 52 -56 33 0 37 -15 7 -23 -72
-19 -115 76 -62 136 19 21 83 24 83 3z m50 -18 l1 -33 28 35 c35 42 52 35 21
-8 l-23 -30 23 -37 c12 -20 27 -34 34 -32 14 5 21 117 6 117 -5 0 -10 5 -10
10 0 6 14 10 30 10 17 0 30 -4 30 -10 0 -5 -4 -10 -10 -10 -15 0 -13 -117 3
-123 6 -3 -9 -6 -35 -6 -42 -1 -49 2 -65 29 -9 17 -21 30 -25 30 -4 0 -8 -13
-8 -30 0 -16 -4 -30 -10 -30 -6 0 -10 32 -10 75 0 43 4 75 10 75 6 0 10 -15
10 -32z m218 -23 c18 -30 34 -55 35 -55 1 0 2 23 2 52 0 32 5 53 13 55 9 4 12
-15 12 -72 0 -66 -2 -76 -17 -73 -9 2 -32 28 -50 58 l-33 55 0 -57 c0 -32 -4
-58 -10 -58 -6 0 -10 32 -10 75 0 92 12 97 58 20z m183 36 c16 -13 23 -29 23
-54 0 -50 -27 -77 -76 -77 l-38 0 0 75 0 75 34 0 c19 0 44 -8 57 -19z m134 9
c4 -6 -7 -10 -24 -10 -24 0 -31 -4 -31 -20 0 -15 7 -20 25 -20 14 0 25 -4 25
-10 0 -5 -11 -10 -25 -10 -20 0 -25 -5 -25 -25 0 -20 5 -25 25 -25 14 0 25 -4
25 -10 0 -5 -18 -10 -40 -10 l-40 0 0 75 0 75 39 0 c22 0 43 -4 46 -10z m50
-17 l17 -26 17 26 c8 15 19 27 23 27 11 0 10 -5 -8 -44 -16 -33 -16 -36 5 -70
17 -27 19 -36 9 -36 -8 0 -21 11 -28 25 -7 14 -16 25 -20 25 -4 0 -12 -11 -18
-25 -6 -14 -16 -25 -22 -25 -14 0 -13 8 10 44 19 32 19 32 0 61 -11 17 -20 33
-20 38 0 16 19 6 35 -20z m115 -3 c0 -27 3 -30 30 -30 27 0 30 3 30 31 0 20 4
29 13 27 8 -3 13 -30 15 -76 2 -60 0 -72 -13 -72 -10 0 -15 10 -15 33 0 29 -3
33 -30 35 -28 2 -30 0 -30 -33 0 -19 -4 -35 -10 -35 -6 0 -10 32 -10 75 0 43
4 75 10 75 6 0 10 -13 10 -30z m140 -22 c0 -64 10 -81 41 -76 22 3 24 8 27 66
2 34 7 62 13 62 6 0 9 -27 7 -67 -3 -61 -6 -69 -29 -82 -24 -13 -29 -13 -53 2
-24 16 -26 23 -26 82 0 37 4 65 10 65 6 0 10 -24 10 -52z m214 30 c8 -13 8
-23 -2 -38 -7 -11 -8 -20 -3 -20 15 0 22 -30 11 -51 -8 -14 -21 -19 -55 -19
l-45 0 0 68 c0 38 3 72 7 76 13 13 76 1 87 -16z"/>
<path d="M100 162 c0 -25 3 -29 21 -25 25 7 22 46 -3 51 -14 3 -18 -3 -18 -26z"/>
<path d="M750 135 c0 -46 3 -55 18 -55 27 0 42 20 42 57 0 22 -6 36 -19 43
-35 18 -41 12 -41 -45z"/>
<path d="M1400 170 c0 -16 5 -21 23 -18 12 2 22 10 22 18 0 8 -10 16 -22 18
-18 3 -23 -2 -23 -18z"/>
<path d="M1400 105 c0 -20 5 -25 25 -25 29 0 36 34 9 44 -27 10 -34 7 -34 -19z"/>
</g>
</svg>
